<?xml version="1.0" encoding="UTF-8"?>
<svg width="248px" height="74px" viewBox="0 0 248 74" version="1.1" xmlns="http://www.w3.org/2000/svg" xmlns:xlink="http://www.w3.org/1999/xlink">
    <!-- Generator: Sketch 42 (36781) - http://www.bohemiancoding.com/sketch -->
    <title>meetup</title>
    <desc>Created with Sketch.</desc>
    <defs></defs>
    <g id="Page-1" stroke="none" stroke-width="1" fill="none" fill-rule="evenodd">
        <g id="Artboard" transform="translate(-93.000000, -131.000000)">
            <g id="meetup" transform="translate(93.000000, 131.000000)">
                <path d="M73.392,36.697 C73.392,56.976 56.962,73.394 36.696,73.394 C16.433,73.395 0,56.976 0,36.697 C0,16.433 16.433,0 36.696,0 C56.962,0 73.392,16.433 73.392,36.697 Z" id="Shape" fill="#D71920" fill-rule="nonzero"></path>
                <path d="M20.684,18.933 L20.684,31.524 C22.601,29.239 24.898,28.088 27.564,28.088 C28.936,28.088 30.167,28.349 31.268,28.87 C32.374,29.386 33.202,30.05 33.759,30.855 C34.3182617,31.6630211 34.7077843,32.5761028 34.904,33.539 C35.108,34.514 35.21,36.034 35.21,38.094 L35.21,51.558 L29.253,51.558 L29.253,39.432 C29.253,37.026 29.145,35.501 28.918,34.855 C28.704818,34.2207346 28.2832937,33.6772643 27.722,33.313 C27.149,32.926 26.435,32.735 25.573,32.735 C24.586,32.735 23.7,32.983 22.931,33.472 C22.146,33.965 21.58,34.702 21.223,35.689 C20.859,36.676 20.677,38.133 20.684,40.062 L20.677,51.559 L14.729,51.559 L14.729,18.933 L20.684,18.933 L20.684,18.933 Z M44.138,18.933 L44.138,31.524 C46.055,29.239 48.351,28.088 51.016,28.088 C52.384,28.088 53.62,28.349 54.727,28.87 C55.827,29.386 56.655,30.05 57.211,30.855 C57.770653,31.662805 58.160211,32.5759698 58.356,33.539 C58.56,34.514 58.662,36.034 58.662,38.094 L58.662,51.558 L52.712,51.558 L52.712,39.432 C52.712,37.026 52.6,35.501 52.372,34.855 C52.1594355,34.2198304 51.7369113,33.6759805 51.174,33.313 C50.607,32.926 49.887,32.735 49.025,32.735 C48.038,32.735 47.154,32.983 46.383,33.472 C45.606,33.965 45.039,34.702 44.676,35.689 C44.319,36.676 44.137,38.133 44.137,40.062 L44.137,51.559 L38.186,51.559 L38.186,18.933 L44.138,18.933 L44.138,18.933 Z" id="Shape" fill="#FFFFFF" fill-rule="nonzero"></path>
                <path d="M120,52 L119.2,37.2 C118.833331,30.2999655 118.65,25.450014 118.65,22.65 L118.55,22.65 C117.016659,27.583358 115.600007,31.849982 114.3,35.45 L108.35,51.8 L105.05,51.8 L99.55,35.75 C97.8499915,30.616641 96.566671,26.250018 95.7,22.65 L95.6,22.65 C95.4999995,26.9500215 95.283335,31.9166385 94.95,37.55 L94.05,52 L89.9,52 L92.25,18.3 L97.8,18.3 L103.55,34.6 C104.88334,38.60002 106.016662,42.3833155 106.95,45.95 L107.05,45.95 C107.850004,42.883318 109.049992,39.1000225 110.65,34.6 L116.65,18.3 L122.2,18.3 L124.3,52 L120,52 Z M150.3,40.7 L133.3,40.7 C133.333334,43.5333475 134.124992,45.6416598 135.675,47.025 C137.225008,48.4083403 139.199988,49.1 141.6,49.1 C144.166679,49.1 146.399991,48.6833375 148.3,47.85 L149.1,51 C146.799989,52.0333385 144.100016,52.55 141,52.55 C137.333315,52.55 134.433344,51.4333445 132.3,49.2 C130.166656,46.9666555 129.1,44.0000185 129.1,40.3 C129.1,36.566648 130.133323,33.466679 132.2,31 C134.266677,28.533321 137.016649,27.3 140.45,27.3 C142.316676,27.3 143.94166,27.6749963 145.325,28.425 C146.70834,29.1750038 147.749997,30.149994 148.45,31.35 C149.150003,32.550006 149.658332,33.7583273 149.975,34.975 C150.291668,36.1916728 150.45,37.4166605 150.45,38.65 C150.45,39.516671 150.400001,40.1999975 150.3,40.7 Z M133.35,37.55 L146.2,37.55 C146.233334,35.7833245 145.775005,34.1583408 144.825,32.675 C143.874995,31.1916593 142.300011,30.45 140.1,30.45 C138.066657,30.45 136.483339,31.1749928 135.35,32.625 C134.216661,34.0750073 133.550001,35.7166575 133.35,37.55 Z M175.35,40.7 L158.35,40.7 C158.383333,43.5333475 159.174992,45.6416598 160.725,47.025 C162.275008,48.4083403 164.249988,49.1 166.65,49.1 C169.216679,49.1 171.449991,48.6833375 173.35,47.85 L174.15,51 C171.849988,52.0333385 169.150015,52.55 166.05,52.55 C162.383315,52.55 159.483344,51.4333445 157.35,49.2 C155.216656,46.9666555 154.15,44.0000185 154.15,40.3 C154.15,36.566648 155.183323,33.466679 157.25,31 C159.316677,28.533321 162.066649,27.3 165.5,27.3 C167.366676,27.3 168.99166,27.6749963 170.375,28.425 C171.75834,29.1750038 172.799997,30.149994 173.5,31.35 C174.200003,32.550006 174.708332,33.7583273 175.025,34.975 C175.341668,36.1916728 175.5,37.4166605 175.5,38.65 C175.5,39.516671 175.45,40.1999975 175.35,40.7 Z M158.4,37.55 L171.25,37.55 C171.283334,35.7833245 170.825005,34.1583408 169.875,32.675 C168.924995,31.1916593 167.350011,30.45 165.15,30.45 C163.116657,30.45 161.533339,31.1749928 160.4,32.625 C159.266661,34.0750073 158.600001,35.7166575 158.4,37.55 Z M181.95,23.3 L186.25,22 L186.25,27.8 L192.55,27.8 L192.55,31.15 L186.25,31.15 L186.25,44.2 C186.25,47.333349 187.349989,48.9 189.55,48.9 C190.583338,48.9 191.43333,48.800001 192.1,48.6 L192.3,51.95 C191.166661,52.350002 189.866674,52.55 188.4,52.55 C186.366657,52.55 184.783339,51.9333395 183.65,50.7 C182.516661,49.433327 181.95,47.3166815 181.95,44.35 L181.95,31.15 L178.2,31.15 L178.2,27.8 L181.95,27.8 L181.95,23.3 Z M217.75,27.8 L217.75,45.35 C217.75,48.083347 217.816666,50.2999915 217.95,52 L214.05,52 L213.8,48.05 L213.7,48.05 C213.03333,49.250006 212.016673,50.2999955 210.65,51.2 C209.283326,52.1000045 207.633343,52.55 205.7,52.55 C204.666661,52.55 203.691671,52.383335 202.775,52.05 C201.858329,51.716665 200.975004,51.1750038 200.125,50.425 C199.274996,49.6749963 198.600002,48.5750073 198.1,47.125 C197.599997,45.6749928 197.35,43.95001 197.35,41.95 L197.35,27.8 L201.75,27.8 L201.75,41.15 C201.75,46.3166925 203.549982,48.9 207.15,48.9 C208.516673,48.9 209.716661,48.500004 210.75,47.7 C211.783339,46.899996 212.516664,45.9500055 212.95,44.85 C213.216668,44.2166635 213.35,43.466671 213.35,42.6 L213.35,27.8 L217.75,27.8 Z M225.05,61.9 L225.05,35.7 C225.05,33.499989 224.983334,30.866682 224.85,27.8 L228.75,27.8 L229,31.95 L229.1,31.95 C230.933343,28.8499845 233.799981,27.3 237.7,27.3 C240.666682,27.3 243.12499,28.433322 245.075,30.7 C247.02501,32.966678 248,35.9166485 248,39.55 C248,43.683354 246.925011,46.883322 244.775,49.15 C242.624989,51.416678 240.016682,52.55 236.95,52.55 C235.349992,52.55 233.891673,52.21667 232.575,51.55 C231.258327,50.88333 230.233337,49.950006 229.5,48.75 L229.4,48.75 L229.4,61.9 L225.05,61.9 Z M229.4,37.95 L229.4,42.15 C229.4,42.8500035 229.466666,43.4499975 229.6,43.95 C230.000002,45.483341 230.808327,46.7249953 232.025,47.675 C233.241673,48.6250048 234.633326,49.1 236.2,49.1 C238.500012,49.1 240.299994,48.2500085 241.6,46.55 C242.900007,44.8499915 243.55,42.5833475 243.55,39.75 C243.55,37.216654 242.90834,35.0916753 241.625,33.375 C240.34166,31.6583248 238.583345,30.8 236.35,30.8 C234.816659,30.8 233.425006,31.2916618 232.175,32.275 C230.924994,33.2583383 230.100002,34.5666585 229.7,36.2 C229.499999,36.933337 229.4,37.5166645 229.4,37.95 Z" id="Meetup" fill="#FFFFFF"></path>
            </g>
        </g>
    </g>
</svg>