<?xml version="1.0" encoding="UTF-8"?>
<svg width="40px" height="20px" viewBox="0 0 40 20" version="1.1" xmlns="http://www.w3.org/2000/svg" xmlns:xlink="http://www.w3.org/1999/xlink">
    <!-- Generator: Sketch 42 (36781) - http://www.bohemiancoding.com/sketch -->
    <title>vote</title>
    <desc>Created with Sketch.</desc>
    <defs></defs>
    <g id="Page-1" stroke="none" stroke-width="1" fill="none" fill-rule="evenodd">
        <g id="vote" fill-rule="nonzero">
            <path d="M16.9811321,6.22309571 L16.3636364,6.22309571 L14.0994854,6.22309571 L13.1389365,6.22309571 L13.1389365,3.54728092 C13.1389365,2.17506821 12.7272727,1.180214 11.9039451,0.562718275 C10.6346484,-0.363525305 8.98799314,0.116749144 8.81646655,0.18535978 L8.26758148,0.356886368 L8.26758148,4.33630323 C8.26758148,6.73767547 5.42024014,7.59530842 5.28301887,7.62961374 L5.31732419,7.80114033 C5.00857633,7.38947651 4.49399657,7.14933929 3.94511149,7.14933929 L1.74957118,7.14933929 C0.789022298,7.14933929 -1.77635684e-15,7.9383616 -1.77635684e-15,8.89891049 L-1.77635684e-15,17.0635761 C-1.77635684e-15,18.024125 0.789022298,18.8131473 1.74957118,18.8131473 L3.94511149,18.8131473 C4.3567753,18.8131473 4.69982847,18.6759261 5.00857633,18.4700942 C5.55746141,19.0189792 6.31217839,19.3277271 7.10120069,19.3277271 L9.7084048,19.3277271 L9.98284734,19.3277271 L14.0994854,19.3277271 L15.0600343,19.3277271 L15.3687822,19.3277271 C17.3584906,19.3277271 18.6620926,18.2299569 18.8679245,16.4117751 L20,9.37918494 L20,9.24196367 C20,7.5610031 18.6277873,6.22309571 16.9811321,6.22309571 Z M4.08233276,17.0635761 C4.08233276,17.1321868 4.01372213,17.2007974 3.94511149,17.2007974 L1.74957118,17.2007974 C1.68096055,17.2007974 1.61234991,17.1321868 1.61234991,17.0635761 L1.61234991,8.86460518 C1.61234991,8.79599454 1.68096055,8.72738391 1.74957118,8.72738391 L3.94511149,8.72738391 C4.01372213,8.72738391 4.08233276,8.79599454 4.08233276,8.86460518 L4.08233276,17.0635761 Z M17.2898799,16.1716379 L17.2898799,16.1716379 C17.2555746,16.5833017 17.1183533,17.7153772 15.3687822,17.7153772 L15.0600343,17.7153772 L14.0994854,17.7153772 L9.98284734,17.7153772 L9.7084048,17.7153772 L7.10120069,17.7153772 C6.31217839,17.7153772 5.69468268,17.0978814 5.69468268,16.3088591 L5.69468268,9.13904772 C5.9348199,9.07043708 9.84562607,7.90405628 9.84562607,4.30199791 L9.84562607,1.59187781 C10.1886792,1.55757249 10.6346484,1.59187781 10.9777015,1.83201503 C11.35506,2.10645757 11.5608919,2.68964798 11.5608919,3.5129756 L11.5608919,7.80114033 L14.1337907,7.80114033 L16.3979417,7.80114033 L17.0154374,7.80114033 C17.8044597,7.80114033 18.4219554,8.41863605 18.4219554,9.20765835 L17.2898799,16.1716379 Z" id="Shape" fill="#4A4A4A"></path>
            <path d="M36.9811321,6.22309571 L36.3636364,6.22309571 L34.0994854,6.22309571 L33.1389365,6.22309571 L33.1389365,3.54728092 C33.1389365,2.17506821 32.7272727,1.180214 31.9039451,0.562718275 C30.6346484,-0.363525305 28.9879931,0.116749144 28.8164666,0.18535978 L28.2675815,0.356886368 L28.2675815,4.33630323 C28.2675815,6.73767547 25.4202401,7.59530842 25.2830189,7.62961374 L25.3173242,7.80114033 C25.0085763,7.38947651 24.4939966,7.14933929 23.9451115,7.14933929 L21.7495712,7.14933929 C20.7890223,7.14933929 20,7.9383616 20,8.89891049 L20,17.0635761 C20,18.024125 20.7890223,18.8131473 21.7495712,18.8131473 L23.9451115,18.8131473 C24.3567753,18.8131473 24.6998285,18.6759261 25.0085763,18.4700942 C25.5574614,19.0189792 26.3121784,19.3277271 27.1012007,19.3277271 L29.7084048,19.3277271 L29.9828473,19.3277271 L34.0994854,19.3277271 L35.0600343,19.3277271 L35.3687822,19.3277271 C37.3584906,19.3277271 38.6620926,18.2299569 38.8679245,16.4117751 L40,9.37918494 L40,9.24196367 C40,7.5610031 38.6277873,6.22309571 36.9811321,6.22309571 Z M24.0823328,17.0635761 C24.0823328,17.1321868 24.0137221,17.2007974 23.9451115,17.2007974 L21.7495712,17.2007974 C21.6809605,17.2007974 21.6123499,17.1321868 21.6123499,17.0635761 L21.6123499,8.86460518 C21.6123499,8.79599454 21.6809605,8.72738391 21.7495712,8.72738391 L23.9451115,8.72738391 C24.0137221,8.72738391 24.0823328,8.79599454 24.0823328,8.86460518 L24.0823328,17.0635761 Z M37.2898799,16.1716379 L37.2898799,16.1716379 C37.2555746,16.5833017 37.1183533,17.7153772 35.3687822,17.7153772 L35.0600343,17.7153772 L34.0994854,17.7153772 L29.9828473,17.7153772 L29.7084048,17.7153772 L27.1012007,17.7153772 C26.3121784,17.7153772 25.6946827,17.0978814 25.6946827,16.3088591 L25.6946827,9.13904772 C25.9348199,9.07043708 29.8456261,7.90405628 29.8456261,4.30199791 L29.8456261,1.59187781 C30.1886792,1.55757249 30.6346484,1.59187781 30.9777015,1.83201503 C31.35506,2.10645757 31.5608919,2.68964798 31.5608919,3.5129756 L31.5608919,7.80114033 L34.1337907,7.80114033 L36.3979417,7.80114033 L37.0154374,7.80114033 C37.8044597,7.80114033 38.4219554,8.41863605 38.4219554,9.20765835 L37.2898799,16.1716379 Z" id="Shape" fill="#7ED321"></path>
        </g>
    </g>
</svg>